<svg xmlns="http://www.w3.org/2000/svg" viewBox="0 0 1600 600" width="1600" height="600" role="img" aria-hidden="true">
  <defs>
    <linearGradient id="g" x1="0%" y1="0%" x2="100%" y2="100%">
      <stop offset="0%" stop-color="#0b143f"/>
      <stop offset="100%" stop-color="#12265c"/>
    </linearGradient>
  </defs>
  <rect width="1600" height="600" fill="url(#g)"/>
  <line x1="0" y1="90.0" x2="1600" y2="30.0" stroke="#e8c766" stroke-width="1" opacity="0.06"/><line x1="0" y1="174.00000000000003" x2="1600" y2="114.0" stroke="#e8c766" stroke-width="1" opacity="0.06"/><line x1="0" y1="258.00000000000006" x2="1600" y2="198.0" stroke="#e8c766" stroke-width="1" opacity="0.06"/><line x1="0" y1="342.00000000000006" x2="1600" y2="282.0" stroke="#e8c766" stroke-width="1" opacity="0.06"/><line x1="0" y1="426.00000000000006" x2="1600" y2="366.00000000000006" stroke="#e8c766" stroke-width="1" opacity="0.06"/><line x1="0" y1="510.00000000000006" x2="1600" y2="450.00000000000006" stroke="#e8c766" stroke-width="1" opacity="0.06"/>
  <rect x="0" y="594" width="1600" height="6" fill="#c9a227"/>
  
      <circle cx="755.12" cy="263.28" r="32.64000000000001" fill="#e8c766" opacity="0.9"/>
      <circle cx="844.88" cy="263.28" r="32.64000000000001" fill="#e8c766" opacity="0.9"/>
      <path d="M 706.16 377.52 Q 706.16 304.08 755.12 304.08 Q 804.08 304.08 804.08 377.52 Z" fill="#e8c766" opacity="0.9"/>
      <path d="M 804.08 377.52 Q 804.08 304.08 844.88 304.08 Q 893.84 304.08 893.84 377.52 Z" fill="#e8c766" opacity="0.9"/>
    
</svg>
